<?xml version="1.0" encoding="utf-8"?>
<!-- Generator: Adobe Illustrator 25.1.0, SVG Export Plug-In . SVG Version: 6.00 Build 0)  -->
<svg version="1.1" xmlns="http://www.w3.org/2000/svg" xmlns:xlink="http://www.w3.org/1999/xlink" x="0px" y="0px"
	 viewBox="0 0 1000 1000" style="enable-background:new 0 0 1000 1000;" xml:space="preserve">
<style type="text/css">
	.st0{display:none;}
	.st1{fill:#999999;}
	.st2{fill:#FFFFFF;}
</style>
<g id="Layer_1" class="st0">
</g>
<g id="Layer_2">
	<g>
		<path class="st1" d="M183.33,332.5c-21.41,0-38.83-17.42-38.83-38.83v-43.33c0-21.41,17.42-38.83,38.83-38.83h636.33
			c21.41,0,38.83,17.42,38.83,38.83v43.33c0,21.41-17.42,38.83-38.83,38.83H183.33z"/>
		<path class="st2" d="M819.67,212c21.14,0,38.33,17.2,38.33,38.33v43.33c0,21.14-17.2,38.33-38.33,38.33H183.33
			C162.2,332,145,314.8,145,293.67v-43.33c0-21.14,17.2-38.33,38.33-38.33H819.67 M819.67,211H183.33
			C161.7,211,144,228.7,144,250.33v43.33c0,21.63,17.7,39.33,39.33,39.33h636.33c21.63,0,39.33-17.7,39.33-39.33v-43.33
			C859,228.7,841.3,211,819.67,211L819.67,211z"/>
	</g>
	<g>
		<path class="st1" d="M180.5,543.5c-21.41,0-38.83-17.42-38.83-38.83v-43.33c0-21.41,17.42-38.83,38.83-38.83h636.33
			c21.41,0,38.83,17.42,38.83,38.83v43.33c0,21.41-17.42,38.83-38.83,38.83H180.5z"/>
		<path class="st2" d="M816.83,423c21.14,0,38.33,17.2,38.33,38.33v43.33c0,21.14-17.2,38.33-38.33,38.33H180.5
			c-21.14,0-38.33-17.2-38.33-38.33v-43.33c0-21.14,17.2-38.33,38.33-38.33H816.83 M816.83,422H180.5
			c-21.63,0-39.33,17.7-39.33,39.33v43.33c0,21.63,17.7,39.33,39.33,39.33h636.33c21.63,0,39.33-17.7,39.33-39.33v-43.33
			C856.17,439.7,838.47,422,816.83,422L816.83,422z"/>
	</g>
	<g>
		<path class="st1" d="M180.33,754.5c-21.41,0-38.83-17.42-38.83-38.83v-43.33c0-21.41,17.42-38.83,38.83-38.83h636.33
			c21.41,0,38.83,17.42,38.83,38.83v43.33c0,21.41-17.42,38.83-38.83,38.83H180.33z"/>
		<path class="st2" d="M816.67,634c21.14,0,38.33,17.2,38.33,38.33v43.33c0,21.14-17.2,38.33-38.33,38.33H180.33
			C159.2,754,142,736.8,142,715.67v-43.33c0-21.14,17.2-38.33,38.33-38.33H816.67 M816.67,633H180.33
			C158.7,633,141,650.7,141,672.33v43.33c0,21.63,17.7,39.33,39.33,39.33h636.33c21.63,0,39.33-17.7,39.33-39.33v-43.33
			C856,650.7,838.3,633,816.67,633L816.67,633z"/>
	</g>
</g>
</svg>
