<?xml version="1.0" encoding="utf-8"?>
<!-- Generator: Adobe Illustrator 25.1.0, SVG Export Plug-In . SVG Version: 6.00 Build 0)  -->
<svg version="1.1" id="Layer_1" xmlns="http://www.w3.org/2000/svg" xmlns:xlink="http://www.w3.org/1999/xlink" x="0px" y="0px"
	 viewBox="0 0 1366 768" style="enable-background:new 0 0 1366 768;" xml:space="preserve">
<style type="text/css">
	.st0{fill:#FFFFFF;}
</style>
<g>
	<path class="st0" d="M26,538.11c18.71,13.53,47.54,24.8,79.93,24.8c48.05,0,80.7-26.5,87.33-64.83
		c6.14-35.52-9.78-55.81-55.5-75.54c-55.58-21.99-86.73-54.12-77.47-107.68C70.53,255.67,125.1,211.7,195.82,211.7
		c37.25,0,62.68,9.02,77.22,18.6l-19.88,40.03c-10.71-6.76-33.05-18.04-65.98-18.04c-49.67,0-73.93,31.01-78.41,56.94
		c-6.14,35.52,12.97,52.99,59.67,73.29c57.25,24.8,83.2,55.81,73.55,111.62C231.85,552.76,181.5,603.5,95.66,603.5
		c-35.09,0-71.57-10.71-88.66-24.24L26,538.11z"/>
	<path class="st0" d="M400.98,217.9l-27.5,158.98h175.99l27.5-158.98h47.51l-65.72,379.97h-47.51l30.81-178.14H366.07l-30.81,178.14
		h-46.97l65.72-379.97H400.98z"/>
	<path class="st0" d="M661.33,597.86h-48.59L802.09,217.9h56.69l58.45,379.97h-50.21 M862.77,598l-33.75-267.35
		c-3.81-24.81-5.31-47.35-6.9-69.34h-1.08c-9.3,22.55-19.23,45.66-30.25,68.78L654.2,598"/>
	<path class="st0" d="M1021.97,597.86L968.92,217.9h50.75l24.31,187.16c6.78,51.3,12.28,97.53,14.3,142.07h1.08
		c17.86-43.97,41.27-91.89,66.04-141.5l94.01-187.73h50.21l-195.83,379.97H1021.97z"/>
	<path class="st0" d="M1356,217.9l-65.72,379.97h-46.97l65.72-379.97H1356z"/>
</g>
<polygon class="st0" points="1287.76,606.53 14.9,606.53 13,628.7 1285.86,628.7 "/>
<g>
	<g>
		<path d="M462.45-57.65c1.93,0,1.93-3,0-3C460.52-60.65,460.52-57.65,462.45-57.65L462.45-57.65z"/>
	</g>
</g>
</svg>
